<mxfile host="app.diagrams.net" modified="2023-05-01T23:15:33.803Z" agent="Mozilla/5.0 (X11; Linux x86_64) AppleWebKit/537.36 (KHTML, like Gecko) Chrome/112.0.0.0 Safari/537.36" etag="Sft02WiVsNb4NoEWpDse" version="21.2.3" type="device">
  <diagram name="Page-1" id="58cdce13-f638-feb5-8d6f-7d28b1aa9fa0">
    <mxGraphModel dx="1674" dy="1626" grid="0" gridSize="10" guides="1" tooltips="1" connect="1" arrows="1" fold="1" page="1" pageScale="1" pageWidth="1100" pageHeight="850" background="none" math="0" shadow="0">
      <root>
        <mxCell id="0" />
        <mxCell id="1" parent="0" />
        <mxCell id="382b91b5511bd0f7-1" value="" style="ellipse;html=1;shape=startState;fillColor=#000000;strokeColor=none;rounded=1;shadow=0;comic=0;labelBackgroundColor=none;fontFamily=Verdana;fontSize=12;fontColor=#000000;align=center;direction=south;" parent="1" vertex="1">
          <mxGeometry x="620" y="135" width="30" height="30" as="geometry" />
        </mxCell>
        <mxCell id="qrFLYeF_z-qnf6U-5PKB-10" value="WaitForDirection" style="rounded=1;whiteSpace=wrap;html=1;" parent="1" vertex="1">
          <mxGeometry x="710" y="120" width="120" height="60" as="geometry" />
        </mxCell>
        <mxCell id="OJHZA6s3oaMIqZyEjfoS-6" value="" style="endArrow=classic;html=1;rounded=0;exitX=0.5;exitY=0;exitDx=0;exitDy=0;entryX=0;entryY=0.5;entryDx=0;entryDy=0;" parent="1" source="382b91b5511bd0f7-1" target="qrFLYeF_z-qnf6U-5PKB-10" edge="1">
          <mxGeometry relative="1" as="geometry">
            <mxPoint x="410" y="150" as="sourcePoint" />
            <mxPoint x="940" y="40" as="targetPoint" />
          </mxGeometry>
        </mxCell>
        <mxCell id="OJHZA6s3oaMIqZyEjfoS-11" value="Game" style="rounded=1;whiteSpace=wrap;html=1;" parent="1" vertex="1">
          <mxGeometry x="770" y="270" width="140" height="60" as="geometry" />
        </mxCell>
        <mxCell id="OJHZA6s3oaMIqZyEjfoS-12" value="" style="endArrow=classic;html=1;rounded=0;exitX=1;exitY=0.5;exitDx=0;exitDy=0;entryX=0;entryY=0.25;entryDx=0;entryDy=0;" parent="1" source="qrFLYeF_z-qnf6U-5PKB-10" target="qUkG-FMzaODTVLIVySfF-5" edge="1">
          <mxGeometry relative="1" as="geometry">
            <mxPoint x="900" y="180" as="sourcePoint" />
            <mxPoint x="940" y="40" as="targetPoint" />
            <Array as="points">
              <mxPoint x="840" y="150" />
            </Array>
          </mxGeometry>
        </mxCell>
        <mxCell id="OJHZA6s3oaMIqZyEjfoS-13" value="changeDirection" style="edgeLabel;resizable=0;html=1;align=center;verticalAlign=middle;" parent="OJHZA6s3oaMIqZyEjfoS-12" connectable="0" vertex="1">
          <mxGeometry relative="1" as="geometry" />
        </mxCell>
        <mxCell id="OJHZA6s3oaMIqZyEjfoS-31" value="Pause" style="rounded=1;whiteSpace=wrap;html=1;" parent="1" vertex="1">
          <mxGeometry x="380" y="365" width="120" height="60" as="geometry" />
        </mxCell>
        <mxCell id="OJHZA6s3oaMIqZyEjfoS-36" value="" style="endArrow=classic;html=1;rounded=0;exitX=-0.003;exitY=0.627;exitDx=0;exitDy=0;entryX=0.161;entryY=0.021;entryDx=0;entryDy=0;exitPerimeter=0;entryPerimeter=0;" parent="1" source="OJHZA6s3oaMIqZyEjfoS-11" target="OJHZA6s3oaMIqZyEjfoS-31" edge="1">
          <mxGeometry relative="1" as="geometry">
            <mxPoint x="670" y="400" as="sourcePoint" />
            <mxPoint x="680" y="550" as="targetPoint" />
            <Array as="points">
              <mxPoint x="399" y="310" />
            </Array>
          </mxGeometry>
        </mxCell>
        <mxCell id="OJHZA6s3oaMIqZyEjfoS-37" value="pauseGame" style="edgeLabel;resizable=0;html=1;align=center;verticalAlign=middle;rotation=0;" parent="OJHZA6s3oaMIqZyEjfoS-36" connectable="0" vertex="1">
          <mxGeometry relative="1" as="geometry">
            <mxPoint x="38" y="-2" as="offset" />
          </mxGeometry>
        </mxCell>
        <mxCell id="OJHZA6s3oaMIqZyEjfoS-39" value="" style="endArrow=classic;html=1;rounded=0;exitX=0.75;exitY=0;exitDx=0;exitDy=0;entryX=0.043;entryY=0.992;entryDx=0;entryDy=0;entryPerimeter=0;" parent="1" source="OJHZA6s3oaMIqZyEjfoS-31" target="OJHZA6s3oaMIqZyEjfoS-11" edge="1">
          <mxGeometry relative="1" as="geometry">
            <mxPoint x="720" y="270" as="sourcePoint" />
            <mxPoint x="720" y="400" as="targetPoint" />
          </mxGeometry>
        </mxCell>
        <mxCell id="OJHZA6s3oaMIqZyEjfoS-40" value="resumeGame{Ultimo &lt;br&gt;Estado&lt;br&gt;&amp;nbsp;foi Game}" style="edgeLabel;resizable=0;html=1;align=center;verticalAlign=middle;rotation=0;" parent="OJHZA6s3oaMIqZyEjfoS-39" connectable="0" vertex="1">
          <mxGeometry relative="1" as="geometry">
            <mxPoint y="1" as="offset" />
          </mxGeometry>
        </mxCell>
        <mxCell id="OJHZA6s3oaMIqZyEjfoS-60" style="rounded=0;orthogonalLoop=1;jettySize=auto;html=1;entryX=1;entryY=0;entryDx=0;entryDy=0;" parent="1" source="OJHZA6s3oaMIqZyEjfoS-50" target="OJHZA6s3oaMIqZyEjfoS-62" edge="1">
          <mxGeometry relative="1" as="geometry">
            <mxPoint x="1150" y="540" as="targetPoint" />
          </mxGeometry>
        </mxCell>
        <mxCell id="OJHZA6s3oaMIqZyEjfoS-50" value="GameOver" style="rounded=1;whiteSpace=wrap;html=1;" parent="1" vertex="1">
          <mxGeometry x="1060" y="400" width="120" height="60" as="geometry" />
        </mxCell>
        <mxCell id="OJHZA6s3oaMIqZyEjfoS-53" value="" style="endArrow=classic;html=1;rounded=0;exitX=1;exitY=1;exitDx=0;exitDy=0;entryX=0;entryY=0.5;entryDx=0;entryDy=0;" parent="1" source="OJHZA6s3oaMIqZyEjfoS-31" target="OJHZA6s3oaMIqZyEjfoS-50" edge="1">
          <mxGeometry relative="1" as="geometry">
            <mxPoint x="720" y="270" as="sourcePoint" />
            <mxPoint x="820" y="270" as="targetPoint" />
          </mxGeometry>
        </mxCell>
        <mxCell id="OJHZA6s3oaMIqZyEjfoS-54" value="exitGame" style="edgeLabel;resizable=0;html=1;align=center;verticalAlign=middle;rotation=0;" parent="OJHZA6s3oaMIqZyEjfoS-53" connectable="0" vertex="1">
          <mxGeometry relative="1" as="geometry">
            <mxPoint y="-2" as="offset" />
          </mxGeometry>
        </mxCell>
        <mxCell id="OJHZA6s3oaMIqZyEjfoS-55" value="" style="endArrow=classic;html=1;rounded=0;exitX=0.5;exitY=1;exitDx=0;exitDy=0;entryX=0;entryY=0;entryDx=0;entryDy=0;" parent="1" source="OJHZA6s3oaMIqZyEjfoS-31" target="OJHZA6s3oaMIqZyEjfoS-62" edge="1">
          <mxGeometry relative="1" as="geometry">
            <mxPoint x="720" y="270" as="sourcePoint" />
            <mxPoint x="820" y="270" as="targetPoint" />
            <Array as="points">
              <mxPoint x="440" y="450" />
            </Array>
          </mxGeometry>
        </mxCell>
        <mxCell id="OJHZA6s3oaMIqZyEjfoS-56" value="saveGame" style="edgeLabel;resizable=0;html=1;align=center;verticalAlign=middle;rotation=7;" parent="OJHZA6s3oaMIqZyEjfoS-55" connectable="0" vertex="1">
          <mxGeometry relative="1" as="geometry">
            <mxPoint x="-30" y="-5" as="offset" />
          </mxGeometry>
        </mxCell>
        <mxCell id="OJHZA6s3oaMIqZyEjfoS-62" value="" style="ellipse;html=1;shape=endState;fillColor=#000000;strokeColor=#000000;" parent="1" vertex="1">
          <mxGeometry x="800" y="500" width="30" height="30" as="geometry" />
        </mxCell>
        <mxCell id="OJHZA6s3oaMIqZyEjfoS-63" value="" style="endArrow=classic;html=1;rounded=0;exitX=0.25;exitY=0;exitDx=0;exitDy=0;entryX=0.25;entryY=1;entryDx=0;entryDy=0;" parent="1" source="qrFLYeF_z-qnf6U-5PKB-10" target="OJHZA6s3oaMIqZyEjfoS-31" edge="1">
          <mxGeometry relative="1" as="geometry">
            <mxPoint x="720" y="290" as="sourcePoint" />
            <mxPoint x="820" y="290" as="targetPoint" />
            <Array as="points">
              <mxPoint x="740" />
              <mxPoint x="1200" />
              <mxPoint x="1200" y="540" />
              <mxPoint x="410" y="540" />
            </Array>
          </mxGeometry>
        </mxCell>
        <mxCell id="OJHZA6s3oaMIqZyEjfoS-64" value="pause" style="edgeLabel;resizable=0;html=1;align=center;verticalAlign=middle;rotation=90;" parent="OJHZA6s3oaMIqZyEjfoS-63" connectable="0" vertex="1">
          <mxGeometry relative="1" as="geometry">
            <mxPoint x="2" y="-153" as="offset" />
          </mxGeometry>
        </mxCell>
        <mxCell id="OJHZA6s3oaMIqZyEjfoS-65" value="" style="endArrow=classic;html=1;rounded=0;exitX=0.357;exitY=1.022;exitDx=0;exitDy=0;exitPerimeter=0;entryX=0.683;entryY=0.022;entryDx=0;entryDy=0;entryPerimeter=0;" parent="1" source="OJHZA6s3oaMIqZyEjfoS-31" target="qrFLYeF_z-qnf6U-5PKB-10" edge="1">
          <mxGeometry relative="1" as="geometry">
            <mxPoint x="720" y="290" as="sourcePoint" />
            <mxPoint x="820" y="290" as="targetPoint" />
            <Array as="points">
              <mxPoint x="423" y="560" />
              <mxPoint x="1250" y="560" />
              <mxPoint x="1250" y="10" />
              <mxPoint x="792" y="10" />
            </Array>
          </mxGeometry>
        </mxCell>
        <mxCell id="OJHZA6s3oaMIqZyEjfoS-66" value="resume{Ultimo estado foi&lt;br&gt;WaitForDirection}" style="edgeLabel;resizable=0;html=1;align=center;verticalAlign=middle;rotation=90;" parent="OJHZA6s3oaMIqZyEjfoS-65" connectable="0" vertex="1">
          <mxGeometry relative="1" as="geometry">
            <mxPoint y="-211" as="offset" />
          </mxGeometry>
        </mxCell>
        <mxCell id="qUkG-FMzaODTVLIVySfF-5" value="LockedGhosts" style="rounded=1;whiteSpace=wrap;html=1;" parent="1" vertex="1">
          <mxGeometry x="960" y="135" width="140" height="60" as="geometry" />
        </mxCell>
        <mxCell id="4WkyXwunT1IC0bPtAzbA-1" value="" style="endArrow=classic;html=1;rounded=0;entryX=0.75;entryY=0;entryDx=0;entryDy=0;exitX=0.25;exitY=0;exitDx=0;exitDy=0;" parent="1" source="qUkG-FMzaODTVLIVySfF-5" target="qUkG-FMzaODTVLIVySfF-5" edge="1">
          <mxGeometry relative="1" as="geometry">
            <mxPoint x="985" y="140" as="sourcePoint" />
            <mxPoint x="1050" y="135" as="targetPoint" />
            <Array as="points">
              <mxPoint x="995" y="60" />
              <mxPoint x="1065" y="60" />
            </Array>
          </mxGeometry>
        </mxCell>
        <mxCell id="4WkyXwunT1IC0bPtAzbA-2" value="evolve{enquanto o tempo &lt;br&gt;de libertar os fantasmas &lt;br&gt;nao acaba}" style="edgeLabel;resizable=0;html=1;align=center;verticalAlign=middle;" parent="4WkyXwunT1IC0bPtAzbA-1" connectable="0" vertex="1">
          <mxGeometry relative="1" as="geometry">
            <mxPoint x="40" y="10" as="offset" />
          </mxGeometry>
        </mxCell>
        <mxCell id="4WkyXwunT1IC0bPtAzbA-3" value="" style="endArrow=classic;html=1;rounded=0;exitX=1;exitY=0.25;exitDx=0;exitDy=0;entryX=1;entryY=0.75;entryDx=0;entryDy=0;" parent="1" source="qUkG-FMzaODTVLIVySfF-5" target="qUkG-FMzaODTVLIVySfF-5" edge="1">
          <mxGeometry relative="1" as="geometry">
            <mxPoint x="1120" y="164.6" as="sourcePoint" />
            <mxPoint x="1220" y="164.6" as="targetPoint" />
            <Array as="points">
              <mxPoint x="1170" y="150" />
              <mxPoint x="1170" y="180" />
            </Array>
          </mxGeometry>
        </mxCell>
        <mxCell id="4WkyXwunT1IC0bPtAzbA-4" value="changeDirection" style="edgeLabel;resizable=0;html=1;align=center;verticalAlign=middle;" parent="4WkyXwunT1IC0bPtAzbA-3" connectable="0" vertex="1">
          <mxGeometry relative="1" as="geometry">
            <mxPoint x="-20" y="-15" as="offset" />
          </mxGeometry>
        </mxCell>
        <mxCell id="4WkyXwunT1IC0bPtAzbA-5" value="" style="endArrow=classic;html=1;rounded=0;exitX=1.003;exitY=0.18;exitDx=0;exitDy=0;entryX=1;entryY=0.75;entryDx=0;entryDy=0;exitPerimeter=0;" parent="1" source="OJHZA6s3oaMIqZyEjfoS-11" target="OJHZA6s3oaMIqZyEjfoS-11" edge="1">
          <mxGeometry relative="1" as="geometry">
            <mxPoint x="930" y="290" as="sourcePoint" />
            <mxPoint x="1030" y="290" as="targetPoint" />
            <Array as="points">
              <mxPoint x="980" y="280" />
              <mxPoint x="980" y="315" />
            </Array>
          </mxGeometry>
        </mxCell>
        <mxCell id="4WkyXwunT1IC0bPtAzbA-6" value="changeDirection" style="edgeLabel;resizable=0;html=1;align=center;verticalAlign=middle;" parent="4WkyXwunT1IC0bPtAzbA-5" connectable="0" vertex="1">
          <mxGeometry relative="1" as="geometry">
            <mxPoint x="-10" y="-18" as="offset" />
          </mxGeometry>
        </mxCell>
        <mxCell id="4WkyXwunT1IC0bPtAzbA-7" value="" style="endArrow=classic;html=1;rounded=0;exitX=0;exitY=1;exitDx=0;exitDy=0;entryX=0.977;entryY=0.08;entryDx=0;entryDy=0;entryPerimeter=0;" parent="1" source="qUkG-FMzaODTVLIVySfF-5" target="OJHZA6s3oaMIqZyEjfoS-11" edge="1">
          <mxGeometry relative="1" as="geometry">
            <mxPoint x="930" y="290" as="sourcePoint" />
            <mxPoint x="910" y="270" as="targetPoint" />
          </mxGeometry>
        </mxCell>
        <mxCell id="4WkyXwunT1IC0bPtAzbA-8" value="evolve{acabou o tempo&lt;br&gt;&amp;nbsp;dos fantasmas &lt;br&gt;estarem presos}" style="edgeLabel;resizable=0;html=1;align=center;verticalAlign=middle;rotation=0;" parent="4WkyXwunT1IC0bPtAzbA-7" connectable="0" vertex="1">
          <mxGeometry relative="1" as="geometry">
            <mxPoint x="7" y="-5" as="offset" />
          </mxGeometry>
        </mxCell>
        <mxCell id="4WkyXwunT1IC0bPtAzbA-9" value="" style="endArrow=classic;html=1;rounded=0;exitX=1;exitY=1;exitDx=0;exitDy=0;entryX=0.02;entryY=0.067;entryDx=0;entryDy=0;entryPerimeter=0;" parent="1" source="OJHZA6s3oaMIqZyEjfoS-11" target="OJHZA6s3oaMIqZyEjfoS-50" edge="1">
          <mxGeometry relative="1" as="geometry">
            <mxPoint x="960" y="360" as="sourcePoint" />
            <mxPoint x="1060" y="360" as="targetPoint" />
          </mxGeometry>
        </mxCell>
        <mxCell id="4WkyXwunT1IC0bPtAzbA-10" value="evolve{pacman &lt;br&gt;está no mesmo sitio &lt;br&gt;que um fantasma &lt;br&gt;e só tem uma vida}" style="edgeLabel;resizable=0;html=1;align=center;verticalAlign=middle;rotation=30;" parent="4WkyXwunT1IC0bPtAzbA-9" connectable="0" vertex="1">
          <mxGeometry relative="1" as="geometry">
            <mxPoint x="-6" y="-2" as="offset" />
          </mxGeometry>
        </mxCell>
        <mxCell id="4WkyXwunT1IC0bPtAzbA-11" value="" style="endArrow=classic;html=1;rounded=0;exitX=0;exitY=0.5;exitDx=0;exitDy=0;entryX=0.086;entryY=1.028;entryDx=0;entryDy=0;entryPerimeter=0;" parent="1" source="OJHZA6s3oaMIqZyEjfoS-11" target="qrFLYeF_z-qnf6U-5PKB-10" edge="1">
          <mxGeometry relative="1" as="geometry">
            <mxPoint x="1120" y="420" as="sourcePoint" />
            <mxPoint x="1020" y="420" as="targetPoint" />
            <Array as="points">
              <mxPoint x="720" y="300" />
              <mxPoint x="720" y="230" />
            </Array>
          </mxGeometry>
        </mxCell>
        <mxCell id="4WkyXwunT1IC0bPtAzbA-12" value="evolve{pacman está no mesmo &lt;br&gt;sitio que um fantasma &lt;br&gt;e tem mais do &lt;br&gt;que uma vida}" style="edgeLabel;resizable=0;html=1;align=center;verticalAlign=middle;" parent="4WkyXwunT1IC0bPtAzbA-11" connectable="0" vertex="1">
          <mxGeometry relative="1" as="geometry">
            <mxPoint x="-30" y="-46" as="offset" />
          </mxGeometry>
        </mxCell>
        <mxCell id="4WkyXwunT1IC0bPtAzbA-13" value="" style="endArrow=classic;html=1;rounded=0;exitX=0.23;exitY=1.018;exitDx=0;exitDy=0;exitPerimeter=0;entryX=0.932;entryY=0.977;entryDx=0;entryDy=0;entryPerimeter=0;" parent="1" source="OJHZA6s3oaMIqZyEjfoS-11" target="OJHZA6s3oaMIqZyEjfoS-11" edge="1">
          <mxGeometry relative="1" as="geometry">
            <mxPoint x="800" y="380" as="sourcePoint" />
            <mxPoint x="900" y="380" as="targetPoint" />
            <Array as="points">
              <mxPoint x="802" y="380" />
              <mxPoint x="900" y="380" />
            </Array>
          </mxGeometry>
        </mxCell>
        <mxCell id="4WkyXwunT1IC0bPtAzbA-14" value="evolve{pacman não está &lt;br&gt;no mesmo sitio &lt;br&gt;que um fanstasma&lt;br&gt;&amp;nbsp;e tem comida no maze}" style="edgeLabel;resizable=0;html=1;align=center;verticalAlign=middle;" parent="4WkyXwunT1IC0bPtAzbA-13" connectable="0" vertex="1">
          <mxGeometry relative="1" as="geometry">
            <mxPoint x="-52" as="offset" />
          </mxGeometry>
        </mxCell>
        <mxCell id="4WkyXwunT1IC0bPtAzbA-17" value="" style="endArrow=classic;html=1;rounded=0;exitX=0.092;exitY=-0.011;exitDx=0;exitDy=0;entryX=-0.002;entryY=0.571;entryDx=0;entryDy=0;exitPerimeter=0;entryPerimeter=0;" parent="1" source="qUkG-FMzaODTVLIVySfF-5" target="OJHZA6s3oaMIqZyEjfoS-31" edge="1">
          <mxGeometry relative="1" as="geometry">
            <mxPoint x="875" y="120" as="sourcePoint" />
            <mxPoint x="725" y="490" as="targetPoint" />
            <Array as="points">
              <mxPoint x="970" y="20" />
              <mxPoint x="1300" y="20" />
              <mxPoint x="1300" y="570" />
              <mxPoint x="340" y="570" />
              <mxPoint x="340" y="399" />
            </Array>
          </mxGeometry>
        </mxCell>
        <mxCell id="4WkyXwunT1IC0bPtAzbA-18" value="pause" style="edgeLabel;resizable=0;html=1;align=center;verticalAlign=middle;rotation=90;" parent="4WkyXwunT1IC0bPtAzbA-17" connectable="0" vertex="1">
          <mxGeometry relative="1" as="geometry">
            <mxPoint x="88" y="-280" as="offset" />
          </mxGeometry>
        </mxCell>
        <mxCell id="4WkyXwunT1IC0bPtAzbA-20" value="" style="endArrow=classic;html=1;rounded=0;entryX=0.179;entryY=0.03;entryDx=0;entryDy=0;exitX=0.098;exitY=1.002;exitDx=0;exitDy=0;exitPerimeter=0;entryPerimeter=0;" parent="1" source="OJHZA6s3oaMIqZyEjfoS-31" target="qUkG-FMzaODTVLIVySfF-5" edge="1">
          <mxGeometry relative="1" as="geometry">
            <mxPoint x="612.8399999999999" y="510.1199999999999" as="sourcePoint" />
            <mxPoint x="1022.8200000000002" y="155.90000000000003" as="targetPoint" />
            <Array as="points">
              <mxPoint x="390" y="580" />
              <mxPoint x="1340" y="580" />
              <mxPoint x="1340" y="30" />
              <mxPoint x="985" y="30" />
            </Array>
          </mxGeometry>
        </mxCell>
        <mxCell id="4WkyXwunT1IC0bPtAzbA-21" value="resume{ultimo estado &lt;br&gt;foi LockedGhosts}" style="edgeLabel;resizable=0;html=1;align=center;verticalAlign=middle;rotation=90;" parent="4WkyXwunT1IC0bPtAzbA-20" connectable="0" vertex="1">
          <mxGeometry relative="1" as="geometry">
            <mxPoint x="47" y="-290" as="offset" />
          </mxGeometry>
        </mxCell>
        <mxCell id="4WkyXwunT1IC0bPtAzbA-22" value="" style="endArrow=classic;html=1;rounded=0;exitX=0.25;exitY=0;exitDx=0;exitDy=0;entryX=0.75;entryY=1;entryDx=0;entryDy=0;" parent="1" source="OJHZA6s3oaMIqZyEjfoS-11" target="qrFLYeF_z-qnf6U-5PKB-10" edge="1">
          <mxGeometry relative="1" as="geometry">
            <mxPoint x="890" y="300" as="sourcePoint" />
            <mxPoint x="990" y="300" as="targetPoint" />
          </mxGeometry>
        </mxCell>
        <mxCell id="4WkyXwunT1IC0bPtAzbA-23" value="evolve{não há mais &lt;br&gt;comida no maze e tem &lt;br&gt;mais que um vida}" style="edgeLabel;resizable=0;html=1;align=center;verticalAlign=middle;" parent="4WkyXwunT1IC0bPtAzbA-22" connectable="0" vertex="1">
          <mxGeometry relative="1" as="geometry">
            <mxPoint x="18" y="15" as="offset" />
          </mxGeometry>
        </mxCell>
      </root>
    </mxGraphModel>
  </diagram>
</mxfile>
